PathFileType	4	(X/Y/Z)	/tmp/tmp5iqdz_vd/results/MarkerData/markers_smpl.trc
DataRate	CameraRate	NumFrames	NumMarkers	Units	OrigDataRate	OrigDataStartFrame	OrigNumFrames
120	120	10	41	m	120	74	597
Frame#	Time	C7			CLAV			LANK			LBHD			LBWT			LELB			LFHD			LFIN			LFRM			LFWT			LHEE			LKNE			LMT5			LSHN			LSHO			LTHI			LTOE			LUPA			LWRA			LWRB			RANK			RBAC			RBHD			RBWT			RELB			RFHD			RFIN			RFRM			RFWT			RHEE			RKNE			RMT5			RSHN			RSHO			RTHI			RTOE			RUPA			RWRA			RWRB			STRN			T10		
		X1	Y1	Z1	X2	Y2	Z2	X3	Y3	Z3	X4	Y4	Z4	X5	Y5	Z5	X6	Y6	Z6	X7	Y7	Z7	X8	Y8	Z8	X9	Y9	Z9	X10	Y10	Z10	X11	Y11	Z11	X12	Y12	Z12	X13	Y13	Z13	X14	Y14	Z14	X15	Y15	Z15	X16	Y16	Z16	X17	Y17	Z17	X18	Y18	Z18	X19	Y19	Z19	X20	Y20	Z20	X21	Y21	Z21	X22	Y22	Z22	X23	Y23	Z23	X24	Y24	Z24	X25	Y25	Z25	X26	Y26	Z26	X27	Y27	Z27	X28	Y28	Z28	X29	Y29	Z29	X30	Y30	Z30	X31	Y31	Z31	X32	Y32	Z32	X33	Y33	Z33	X34	Y34	Z34	X35	Y35	Z35	X36	Y36	Z36	X37	Y37	Z37	X38	Y38	Z38	X39	Y39	Z39	X40	Y40	Z40	X41	Y41	Z41

75	0.616667	-2.24599	1.52861	-0.615654	-2.14259	1.47695	-0.545086	-2.27194	0.116285	-0.752571	-2.12608	1.67014	-0.624069	-2.2761	1.02047	-0.654251	-2.10498	1.15797	-0.782277	-2.06628	1.72595	-0.530698	-1.97313	0.801346	-0.744897	-2.08667	1.04486	-0.786126	-2.08158	1.01651	-0.602751	-2.31849	0.0958257	-0.740842	-2.12664	0.531941	-0.688196	-2.1398	0.04326	-0.704347	-2.17448	0.394544	-0.735147	-2.13218	1.48153	-0.744527	-2.11186	0.770016	-0.701061	-2.08788	0.0305853	-0.638866	-2.11155	1.25431	-0.777708	-1.98239	0.87311	-0.706755	-2.03409	0.889142	-0.770299	-2.28744	0.0860372	-0.475308	-2.3282	1.44838	-0.560069	-2.23981	1.66879	-0.59037	-2.33031	1.02577	-0.551684	-2.37025	1.1537	-0.336188	-2.19725	1.72215	-0.484246	-2.31194	0.824052	-0.228321	-2.36347	1.00622	-0.299388	-2.19424	1.05804	-0.416595	-2.31618	0.0381169	-0.533047	-2.30462	0.500607	-0.437831	-2.18337	0.0308989	-0.39552	-2.31229	0.297651	-0.438675	-2.3101	1.50464	-0.441359	-2.31337	0.681009	-0.432704	-2.08221	0.0408428	-0.4079	-2.35993	1.37872	-0.381408	-2.25248	0.891447	-0.265182	-2.34163	0.913437	-0.260756	-2.09999	1.29489	-0.524882	-2.28962	1.28484	-0.603696
76	0.625	-2.24503	1.52844	-0.613729	-2.14172	1.47628	-0.543461	-2.27149	0.119098	-0.752245	-2.12481	1.66975	-0.622468	-2.27695	1.02002	-0.652874	-2.10542	1.15756	-0.781162	-2.06505	1.72566	-0.529142	-1.97427	0.800616	-0.744807	-2.08745	1.04443	-0.785313	-2.08234	1.0167	-0.601986	-2.31831	0.0993142	-0.740493	-2.12171	0.532517	-0.686274	-2.14045	0.0435783	-0.704437	-2.17061	0.395983	-0.733678	-2.13146	1.48116	-0.742765	-2.11035	0.770759	-0.6997	-2.08874	0.029867	-0.639062	-2.11158	1.25394	-0.77641	-1.98334	0.872406	-0.70658	-2.03529	0.888487	-0.769859	-2.28762	0.0859813	-0.475264	-2.32755	1.44855	-0.557912	-2.23855	1.66844	-0.588806	-2.3309	1.02535	-0.550151	-2.36893	1.15346	-0.333404	-2.19605	1.72187	-0.482754	-2.30803	0.824009	-0.225982	-2.36123	1.0059	-0.296794	-2.19447	1.05789	-0.415499	-2.31634	0.0380335	-0.532993	-2.30469	0.500445	-0.437029	-2.18331	0.0310825	-0.395653	-2.31236	0.29751	-0.438258	-2.30881	1.50447	-0.439243	-2.31343	0.680834	-0.431638	-2.08215	0.0411292	-0.408279	-2.35861	1.37865	-0.378945	-2.24925	0.892271	-0.262422	-2.33865	0.913106	-0.258455	-2.10002	1.29399	-0.523684	-2.28997	1.28495	-0.602129
77	0.633333	-2.24488	1.52829	-0.611995	-2.14148	1.47605	-0.541991	-2.2713	0.122193	-0.75158	-2.12504	1.66962	-0.621191	-2.27767	1.0199	-0.651549	-2.10629	1.15732	-0.780144	-2.06534	1.72593	-0.52809	-1.97592	0.800051	-0.744797	-2.08864	1.04419	-0.784615	-2.08292	1.01713	-0.601449	-2.31835	0.103052	-0.739742	-2.11687	0.533321	-0.684399	-2.14127	0.0444801	-0.704429	-2.16685	0.39763	-0.732122	-2.1311	1.48094	-0.741189	-2.10881	0.771675	-0.698587	-2.08958	0.0298203	-0.639335	-2.112	1.2537	-0.775169	-1.98473	0.871809	-0.706428	-2.03675	0.888132	-0.769586	-2.28772	0.0861039	-0.475327	-2.32736	1.44854	-0.555838	-2.23876	1.66802	-0.587353	-2.33126	1.02516	-0.548597	-2.3678	1.1535	-0.330764	-2.19626	1.72183	-0.481485	-2.30611	0.824589	-0.222271	-2.35973	1.00617	-0.293483	-2.19425	1.05777	-0.414477	-2.31644	0.0381818	-0.533066	-2.30486	0.500477	-0.436332	-2.18327	0.031292	-0.395814	-2.31247	0.297526	-0.437946	-2.30806	1.50433	-0.437207	-2.31344	0.680893	-0.430707	-2.08209	0.0412655	-0.408688	-2.35767	1.37858	-0.376572	-2.24757	0.892373	-0.259929	-2.33683	0.91361	-0.254828	-2.09985	1.29368	-0.522701	-2.29025	1.28499	-0.600408
78	0.641667	-2.24485	1.52815	-0.610282	-2.14139	1.4757	-0.540585	-2.27017	0.125647	-0.751473	-2.12444	1.66908	-0.619751	-2.27957	1.02	-0.65015	-2.10729	1.1571	-0.779146	-2.06461	1.72536	-0.526713	-1.97769	0.799469	-0.745042	-2.08996	1.04394	-0.783886	-2.08456	1.01733	-0.601233	-2.31748	0.107238	-0.739692	-2.11178	0.534481	-0.682702	-2.14146	0.0452139	-0.704587	-2.16259	0.399668	-0.73087	-2.13123	1.48074	-0.739706	-2.10795	0.772945	-0.697582	-2.09019	0.0291513	-0.639581	-2.11273	1.25351	-0.774014	-1.98618	0.871133	-0.706392	-2.03843	0.887752	-0.769285	-2.28779	0.0861818	-0.475396	-2.32735	1.44851	-0.553796	-2.23817	1.66791	-0.585955	-2.33259	1.02529	-0.546846	-2.36673	1.15345	-0.328271	-2.19557	1.72172	-0.480152	-2.3038	0.825079	-0.219099	-2.35807	1.00627	-0.290601	-2.19446	1.05754	-0.413486	-2.31656	0.0382822	-0.533146	-2.30486	0.500416	-0.435656	-2.18332	0.0314329	-0.395959	-2.31242	0.297497	-0.437628	-2.3075	1.50421	-0.435267	-2.31371	0.680803	-0.4297	-2.0821	0.0412837	-0.408982	-2.35695	1.37852	-0.374315	-2.24552	0.892498	-0.25777	-2.33468	0.913926	-0.251832	-2.0999	1.29328	-0.521829	-2.29083	1.2851	-0.598621
79	0.65	-2.2445	1.52823	-0.608502	-2.14099	1.47546	-0.539168	-2.26902	0.129085	-0.751285	-2.12399	1.669	-0.618239	-2.27995	1.01993	-0.648891	-2.10809	1.15696	-0.778333	-2.06426	1.72552	-0.525313	-1.97931	0.79895	-0.745279	-2.09111	1.04373	-0.78326	-2.08491	1.01777	-0.600295	-2.3166	0.111495	-0.739523	-2.10647	0.53562	-0.681211	-2.14181	0.0457676	-0.70454	-2.15824	0.401674	-0.729754	-2.13134	1.48064	-0.738297	-2.10607	0.774119	-0.696476	-2.09102	0.0284023	-0.639561	-2.11335	1.25342	-0.773002	-1.98757	0.870507	-0.706344	-2.04001	0.887384	-0.768995	-2.28795	0.086275	-0.475551	-2.32709	1.44876	-0.551684	-2.23773	1.66763	-0.584406	-2.33287	1.02515	-0.54551	-2.36563	1.15347	-0.325866	-2.19521	1.72163	-0.478695	-2.30117	0.825571	-0.21626	-2.35635	1.00637	-0.288008	-2.19452	1.05751	-0.412293	-2.31661	0.0384448	-0.5334	-2.30509	0.500424	-0.435063	-2.18346	0.0314865	-0.396127	-2.31262	0.297508	-0.437469	-2.30656	1.50422	-0.433194	-2.31388	0.680833	-0.428939	-2.0822	0.0413102	-0.409193	-2.35588	1.37857	-0.371981	-2.24326	0.892972	-0.255534	-2.33244	0.914177	-0.249236	-2.09998	1.29302	-0.520748	-2.2912	1.2853	-0.597119
80	0.658333	-2.244	1.52814	-0.606735	-2.14054	1.4749	-0.537781	-2.26769	0.132746	-0.751064	-2.12352	1.66879	-0.616766	-2.28134	1.01969	-0.647573	-2.10892	1.15683	-0.777487	-2.06386	1.72554	-0.523952	-1.98096	0.79846	-0.745326	-2.09226	1.04357	-0.782673	-2.08612	1.01786	-0.599909	-2.31554	0.116027	-0.739305	-2.10079	0.536805	-0.67956	-2.14214	0.0464562	-0.704384	-2.15355	0.40381	-0.728525	-2.13128	1.4805	-0.736787	-2.10461	0.775283	-0.695357	-2.0919	0.0278602	-0.639385	-2.11392	1.25333	-0.771977	-1.989	0.870009	-0.706273	-2.04155	0.887046	-0.76876	-2.28792	0.0862683	-0.475726	-2.3268	1.449	-0.549589	-2.23725	1.66723	-0.582864	-2.33383	1.025	-0.543943	-2.3646	1.15355	-0.323383	-2.19478	1.7214	-0.477232	-2.29852	0.825989	-0.213697	-2.35475	1.00652	-0.285375	-2.1947	1.05729	-0.411354	-2.31651	0.0384666	-0.533659	-2.3052	0.500273	-0.434305	-2.18347	0.0315646	-0.396298	-2.3126	0.297376	-0.437181	-2.30544	1.5042	-0.431166	-2.31414	0.680684	-0.427925	-2.08217	0.0413857	-0.409353	-2.35471	1.37872	-0.36959	-2.24112	0.893607	-0.25336	-2.33033	0.914422	-0.246663	-2.10029	1.2923	-0.519814	-2.29186	1.2855	-0.595675
81	0.666667	-2.24382	1.52808	-0.605077	-2.1406	1.47419	-0.536346	-2.26607	0.136431	-0.7509	-2.12285	1.66828	-0.615125	-2.28265	1.01924	-0.646264	-2.10972	1.15662	-0.776251	-2.06328	1.72498	-0.522237	-1.98287	0.797814	-0.745206	-2.09344	1.04337	-0.781849	-2.08722	1.01795	-0.599453	-2.31417	0.120572	-0.73919	-2.09487	0.53803	-0.678125	-2.14224	0.0473158	-0.704241	-2.14857	0.405931	-0.727504	-2.13078	1.48025	-0.735015	-2.1028	0.77644	-0.694167	-2.09258	0.027499	-0.639235	-2.11422	1.25311	-0.770552	-1.99053	0.869401	-0.706074	-2.04319	0.886657	-0.768377	-2.28798	0.0861848	-0.475706	-2.32701	1.4494	-0.547462	-2.23665	1.66688	-0.581372	-2.33473	1.0246	-0.542402	-2.36341	1.15371	-0.320832	-2.19428	1.721	-0.475702	-2.2961	0.826415	-0.211158	-2.35316	1.00681	-0.282585	-2.19485	1.05698	-0.410422	-2.31666	0.038375	-0.533614	-2.30528	0.500019	-0.433474	-2.18349	0.031666	-0.396405	-2.31256	0.297147	-0.436688	-2.3046	1.50432	-0.429049	-2.31431	0.680415	-0.426876	-2.08216	0.041382	-0.409612	-2.35369	1.37901	-0.366988	-2.23911	0.89418	-0.251197	-2.32829	0.914794	-0.243919	-2.10139	1.2916	-0.518699	-2.29313	1.28564	-0.594352
82	0.675	-2.24365	1.52805	-0.603182	-2.14006	1.47407	-0.535095	-2.26421	0.139961	-0.750833	-2.12223	1.66801	-0.613911	-2.28269	1.01925	-0.645017	-2.11073	1.15652	-0.775459	-2.06238	1.72477	-0.52124	-1.98418	0.7974	-0.745699	-2.09454	1.04322	-0.781164	-2.0873	1.01849	-0.598402	-2.31254	0.124907	-0.739206	-2.08949	0.539469	-0.677048	-2.14206	0.0482157	-0.704026	-2.14394	0.408103	-0.726749	-2.13183	1.48016	-0.733889	-2.10047	0.777793	-0.693121	-2.09304	0.0271544	-0.638976	-2.11537	1.25306	-0.769671	-1.99105	0.869022	-0.706426	-2.04437	0.886486	-0.768103	-2.28815	0.0862538	-0.475507	-2.3266	1.44938	-0.545083	-2.23594	1.66675	-0.579854	-2.33475	1.02445	-0.541111	-2.36214	1.15376	-0.318414	-2.19327	1.7209	-0.47436	-2.29361	0.82672	-0.208626	-2.35148	1.00694	-0.279956	-2.19463	1.05686	-0.409202	-2.31686	0.0384533	-0.5334	-2.30553	0.500031	-0.432824	-2.18345	0.0317951	-0.396401	-2.31273	0.297158	-0.436259	-2.30355	1.50426	-0.426898	-2.3144	0.680462	-0.426164	-2.0821	0.0414471	-0.409887	-2.35245	1.37897	-0.364619	-2.23708	0.894614	-0.249102	-2.32625	0.915007	-0.241287	-2.10084	1.29146	-0.517847	-2.29321	1.28573	-0.592245
83	0.683333	-2.24314	1.52769	-0.601405	-2.13918	1.47373	-0.533967	-2.26203	0.143679	-0.750975	-2.12171	1.66786	-0.612699	-2.285	1.01963	-0.643777	-2.11127	1.15629	-0.774841	-2.06183	1.72479	-0.520153	-1.98438	0.796896	-0.747038	-2.09502	1.04287	-0.780564	-2.08933	1.01829	-0.598908	-2.31059	0.129486	-0.739501	-2.08443	0.541178	-0.675877	-2.14177	0.0490705	-0.70389	-2.13932	0.410558	-0.725976	-2.13264	1.47989	-0.732851	-2.0999	0.779285	-0.692556	-2.09363	0.0266101	-0.638741	-2.11613	1.25291	-0.768868	-1.98943	0.868748	-0.707833	-2.04442	0.886353	-0.768004	-2.28831	0.0863297	-0.475583	-2.32583	1.44902	-0.542965	-2.23535	1.66632	-0.578419	-2.33621	1.025	-0.53937	-2.36129	1.15378	-0.316212	-2.19261	1.72054	-0.472984	-2.29088	0.82696	-0.206739	-2.34991	1.00703	-0.277572	-2.19429	1.05635	-0.408662	-2.31706	0.038516	-0.533508	-2.3059	0.499977	-0.432126	-2.1836	0.0319895	-0.396551	-2.31287	0.297125	-0.435908	-2.30235	1.50398	-0.425059	-2.315	0.680449	-0.425225	-2.08219	0.0416284	-0.410123	-2.35131	1.37883	-0.362619	-2.23494	0.895111	-0.247538	-2.3241	0.915202	-0.238982	-2.09984	1.29101	-0.517427	-2.29308	1.28576	-0.590003
84	0.691667	-2.2427	1.52738	-0.599636	-2.13869	1.47307	-0.532727	-2.25959	0.147341	-0.751055	-2.12169	1.66771	-0.611183	-2.28639	1.01917	-0.642593	-2.11273	1.15616	-0.774249	-2.06188	1.72485	-0.518749	-1.98676	0.796596	-0.746369	-2.09677	1.04277	-0.780272	-2.09054	1.01837	-0.598984	-2.30835	0.134052	-0.739694	-2.07888	0.542641	-0.674637	-2.14139	0.0497408	-0.703759	-2.13437	0.412879	-0.725137	-2.13285	1.47975	-0.731533	-2.09838	0.780463	-0.691694	-2.09419	0.0258483	-0.638465	-2.11726	1.25279	-0.768235	-1.99274	0.868261	-0.706937	-2.04685	0.885941	-0.767823	-2.28843	0.0862508	-0.475755	-2.32539	1.44893	-0.541002	-2.23525	1.66581	-0.576763	-2.337	1.02465	-0.537874	-2.36067	1.15381	-0.31362	-2.19261	1.72014	-0.471403	-2.28822	0.827282	-0.204641	-2.3484	1.00704	-0.275104	-2.1941	1.05604	-0.408091	-2.31717	0.0384609	-0.533738	-2.30622	0.499772	-0.431543	-2.18373	0.0320147	-0.396736	-2.31301	0.296937	-0.43571	-2.30131	1.5038	-0.423362	-2.31523	0.680252	-0.424395	-2.08228	0.0415684	-0.410346	-2.35039	1.37891	-0.360561	-2.23271	0.895518	-0.245895	-2.32186	0.915326	-0.236831	-2.09975	1.29009	-0.51694	-2.29357	1.28577	-0.588442
